<svg xmlns="http://www.w3.org/2000/svg" xmlns:xlink="http://www.w3.org/1999/xlink" width="80" height="80" viewBox="0 0 80 80">
  <defs>
    <clipPath id="clip-path">
      <rect id="長方形_2" data-name="長方形 2" width="26.436" height="86.207" fill="none"/>
    </clipPath>
    <clipPath id="clip-_80x80">
      <rect width="80" height="80"/>
    </clipPath>
  </defs>
  <g id="_80x80" data-name="80x80" clip-path="url(#clip-_80x80)">
    <g id="グループ_25" data-name="グループ 25">
      <rect id="長方形_1" data-name="長方形 1" width="80" height="80" fill="none"/>
      <g id="グループ_24" data-name="グループ 24" transform="translate(0.175 18.868) rotate(-45)">
        <g id="グループ_2" data-name="グループ 2" clip-path="url(#clip-path)">
          <path id="パス_15" data-name="パス 15" d="M26.4,6.282l-.01-.181c-.158-1.388-1.433-3.874-8.208-4.928l-.311-.048A8.952,8.952,0,0,0,13.209,0,8.959,8.959,0,0,0,8.547,1.123l-.313.048C1.445,2.223.168,4.711.01,6.1L0,6.192.022,80.729l.01.181c.13,1.15.978,2.771,4.283,3.965l.078.027c.125.044.252.088.381.13l.115.037c.12.039.241.076.363.112l.135.039c.12.034.242.068.369.1l.138.036c.126.033.253.064.38.094l.139.033c.137.032.277.063.422.093l.112.024c.174.036.35.071.545.107s.384.069.6.1q.269.044.546.083l.163.022q.208.029.42.054L9.432,86l.386.042.231.022.378.033.244.019.381.026.245.015.394.019.24.01c.143.005.287.009.429.013l.213.005c.215,0,.431.006.648.006s.435,0,.651-.006l.212-.006c.144,0,.289-.007.43-.012l.244-.011.4-.019.24-.015c.129-.008.257-.016.384-.026l.241-.019.378-.033.229-.023L17.013,86l.213-.025.388-.05.193-.026c.138-.019.273-.039.409-.061l.159-.025c.145-.024.288-.048.434-.074l.124-.022c.16-.029.318-.06.487-.094l.055-.011c4.491-.928,6.963-2.718,6.963-5.042,0-.079-.033-74.286-.033-74.286M19.244,84.5l-.044.009c-.17.035-.32.064-.473.092l-.12.022c-.137.024-.274.048-.413.071l-.154.024-.391.058-.184.025-.375.048-.2.024-.369.039-.221.022-.365.032-.232.019-.371.025-.234.015c-.127.007-.254.013-.382.018l-.236.01c-.138.005-.277.009-.416.012l-.206.005q-.313.006-.63.006t-.627-.006l-.2-.005c-.139,0-.278-.007-.417-.012l-.232-.01c-.128-.005-.255-.011-.381-.018l-.235-.014-.37-.025-.236-.018c-.122-.01-.244-.021-.364-.032l-.223-.022-.373-.04-.2-.023c-.136-.016-.27-.034-.4-.052L8.8,84.78q-.265-.038-.524-.079c-.209-.034-.4-.066-.578-.1s-.354-.068-.52-.1l-.108-.023c-.136-.029-.268-.058-.4-.089l-.131-.031c-.121-.029-.242-.059-.361-.09l-.132-.035c-.117-.031-.232-.063-.345-.1L5.572,84.1q-.173-.051-.34-.1l-.108-.034c-.121-.039-.238-.08-.354-.121L4.7,83.813c-2.184-.789-3.409-1.837-3.544-3.03l0-.054L1.128,6.255l0-.027c.2-1.794,2.923-3.268,7.276-3.942l.612-.095a6.741,6.741,0,0,1,4.19-1.063A6.729,6.729,0,0,1,17.4,2.193l.611.095c4.343.675,7.058,2.148,7.261,3.94l0,.054s.033,74.206.033,74.285c0,1.706-2.21,3.141-6.064,3.937" transform="translate(0 0)" fill="#fff"/>
          <path id="パス_16" data-name="パス 16" d="M51.416,20.928v0h0Z" transform="translate(-34.846 -14.183)" fill="#fff"/>
          <path id="パス_17" data-name="パス 17" d="M54.123,19.376l0,0h0Z" transform="translate(-36.68 -13.132)" fill="#fff"/>
          <path id="パス_18" data-name="パス 18" d="M27.644,8.6c-.2-1.792-2.918-3.265-7.261-3.94l-.611-.095A6.729,6.729,0,0,0,15.58,3.5a6.743,6.743,0,0,0-4.19,1.063l-.611.095C6.426,5.332,3.707,6.806,3.5,8.6l0,.027L3.521,83.1l0,.054c.135,1.193,1.361,2.241,3.544,3.03l.074.026q.174.062.354.121l.108.034q.168.054.34.1l.127.037q.169.049.345.1l.132.035c.119.031.24.061.361.09l.131.031c.131.03.263.06.4.089l.108.023c.166.034.335.068.52.1s.368.066.578.1q.259.042.524.079l.158.021c.133.018.267.036.4.052l.2.023.373.04.223.022c.121.011.242.022.364.032l.236.018.37.025.235.014c.126.007.253.013.381.018l.232.01c.139.005.278.009.417.012l.2.005q.312.006.627.006t.63-.006l.206-.005c.14,0,.278-.007.416-.012l.236-.01.382-.018.234-.015.371-.025.232-.019.365-.032.221-.022.369-.039.2-.024.375-.048.184-.025.391-.058.154-.024c.139-.023.277-.046.413-.071l.12-.022c.153-.028.3-.057.473-.092l.044-.009c3.853-.8,6.064-2.231,6.064-3.937,0-.079-.033-74.285-.033-74.285ZM11.62,5.028c.486-.6,2.075-1.045,3.966-1.045s3.483.443,3.967,1.047a.618.618,0,0,1,.155.384s.007,2.158.007,2.175c0,.79-1.845,1.431-4.122,1.431S11.472,8.38,11.472,7.59l-.008-2.175a.619.619,0,0,1,.156-.386M24.279,85.611h0l-.084.031c-.152.058-.307.115-.469.17l-.185.061q-.214.07-.437.136l-.209.061q-.233.065-.476.126l-.194.049c-.228.055-.46.108-.7.158l-.067.013q-.218.044-.44.085l-.118.021c-.134.024-.268.047-.4.069l-.152.024c-.127.02-.255.039-.384.057l-.18.025q-.184.025-.37.047l-.2.024-.361.038-.219.022c-.118.011-.237.021-.356.031l-.233.019c-.119.009-.239.016-.36.024l-.237.014c-.123.007-.247.012-.371.018l-.235.01c-.136.005-.273.008-.41.012l-.2.005q-.295.006-.594.006h-.047q-.3,0-.6-.006l-.209-.005c-.135,0-.27-.007-.4-.012l-.235-.01-.369-.018-.242-.014-.355-.024-.237-.018-.354-.031-.224-.021-.362-.039-.2-.023c-.131-.016-.261-.033-.39-.05l-.161-.021q-.255-.036-.5-.076l-.031,0q-.276-.044-.544-.094l-.022,0q-.247-.046-.487-.1l-.112-.024c-.13-.027-.258-.056-.384-.085l-.131-.031c-.118-.028-.235-.057-.35-.087l-.133-.035q-.168-.045-.332-.092l-.126-.036q-.167-.049-.327-.1l-.107-.034c-.116-.038-.228-.077-.339-.116l-.074-.026q-.2-.072-.39-.148h0c-1.677-.67-2.728-1.533-2.835-2.481H3.978V8.655h.012c.178-1.572,2.949-2.912,6.87-3.519a1.135,1.135,0,0,0-.039.279l.008,2.178a1.162,1.162,0,0,0,.122.518,1.422,1.422,0,0,0,.219.315c.019.022.036.044.057.065.036.037.078.073.119.108s.053.047.082.069.088.065.134.1.066.044.1.066.1.058.149.086.078.041.118.061.105.053.161.077.089.038.134.056.112.046.17.068.1.036.157.053c.082.027.166.054.252.079s.165.047.251.069c.054.014.11.025.165.038s.136.031.206.045l.173.032c.07.013.141.025.213.036l.175.025.225.029.171.019.241.022.162.013c.09.006.18.011.271.014l.134.006q.2.007.405.007T16,9.659l.134-.006c.091,0,.181-.008.272-.014l.16-.012.242-.022.171-.019.223-.029.177-.026.21-.036c.059-.011.119-.021.177-.033s.133-.029.2-.044.115-.025.171-.039c.074-.019.145-.039.216-.059.1-.029.2-.059.294-.091.049-.016.1-.032.147-.05s.1-.04.15-.06v0l.025-.01c.044-.018.087-.035.129-.054s.111-.052.165-.079l.113-.059q.078-.043.152-.088c.033-.021.065-.042.1-.063.048-.032.094-.065.138-.1.019-.015.037-.031.055-.046l0,0,0,0,.022-.019c.043-.037.086-.073.123-.112.018-.018.033-.038.049-.056a1.427,1.427,0,0,0,.226-.323,1.167,1.167,0,0,0,.123-.52c0-.018-.007-2.178-.007-2.178a1.116,1.116,0,0,0-.039-.275c3.913.608,6.677,1.947,6.855,3.517h.012V82.7a1.453,1.453,0,0,1,.021.236c0,1.025-1.106,1.96-2.924,2.671" transform="translate(-2.372 -2.372)" fill="#00a7ea"/>
          <path id="パス_19" data-name="パス 19" d="M7.884,14.934s0-.007.005-.011a.642.642,0,0,1,.4-.389v-1.1H9.957V11.55h2a1.164,1.164,0,0,1-.122-.518l-.007-2.177a1.134,1.134,0,0,1,.039-.279c-3.92.607-6.691,1.947-6.87,3.519H4.982V86.541h.033c.107.948,1.159,1.812,2.835,2.481V14.934Z" transform="translate(-3.376 -5.812)" fill="#00a7ea"/>
          <path id="パス_20" data-name="パス 20" d="M62.379,12.1h-.012c-.178-1.57-2.942-2.909-6.855-3.517a1.134,1.134,0,0,1,.038.275s.008,2.16.008,2.177a1.166,1.166,0,0,1-.123.52h1.992v1.885h1.646v1.1h0a.642.642,0,0,1,.4.389l.005.012a.644.644,0,0,1,0,.406V89.055c1.817-.711,2.924-1.646,2.924-2.671a1.412,1.412,0,0,0-.022-.236Z" transform="translate(-37.57 -5.816)" fill="#00a7ea"/>
          <path id="パス_21" data-name="パス 21" d="M16.91,17.8v1.885H15.241v1.1a.64.64,0,0,1,.092-.024l.018,0a.577.577,0,0,1,.082-.008.465.465,0,0,1,.047,0c.02,0,.04,0,.061,0a.653.653,0,0,1,.114.026,25.544,25.544,0,0,0,7.882,1.111,25.549,25.549,0,0,0,7.883-1.111.628.628,0,0,1,.114-.026c.02,0,.04,0,.06,0l.048,0a.614.614,0,0,1,.081.008l.019,0a.675.675,0,0,1,.091.024h0v-1.1H30.187V17.8H28.195a1.439,1.439,0,0,1-.226.323c-.017.019-.031.038-.049.056-.038.039-.081.075-.124.112l-.022.019c-.018.016-.036.032-.055.046-.044.034-.09.067-.138.1-.032.022-.063.043-.1.063q-.073.045-.152.088l-.113.059c-.054.027-.108.054-.165.079-.042.019-.085.036-.129.054l-.025.01c-.05.02-.1.041-.15.06s-.1.034-.147.05q-.143.048-.294.091c-.072.02-.142.041-.216.059-.056.014-.114.026-.171.039s-.132.03-.2.044-.118.022-.177.033l-.209.036-.177.026-.223.029-.172.019-.242.022-.16.012c-.091.006-.181.011-.272.015l-.134.006q-.2.007-.405.007t-.406-.007l-.134-.006c-.09,0-.181-.008-.271-.015l-.162-.013-.241-.022-.17-.019-.225-.029-.175-.026-.213-.036c-.058-.011-.116-.021-.173-.032s-.138-.03-.206-.045-.111-.024-.165-.038c-.085-.021-.168-.045-.251-.069s-.169-.051-.251-.079c-.053-.018-.106-.035-.157-.053s-.114-.045-.17-.068-.091-.037-.134-.056-.108-.051-.16-.077-.08-.04-.118-.061-.1-.057-.149-.086-.068-.044-.1-.066-.092-.063-.134-.1-.055-.046-.082-.069-.083-.071-.119-.108c-.021-.021-.037-.043-.057-.065a1.433,1.433,0,0,1-.219-.315h-2Z" transform="translate(-10.329 -12.066)" fill="#fff"/>
          <path id="パス_22" data-name="パス 22" d="M29.959,91.671a2.208,2.208,0,0,0-1.642-2.135c-.561-.144-1.146.057-1.146.672v3.309l2.789.6Z" transform="translate(-18.414 -60.651)" fill="#fff"/>
          <path id="パス_23" data-name="パス 23" d="M42.27,132.927a1.726,1.726,0,0,0,.97,1.715h0c.849.461,2.237.619,2.237-1.087v-3.227l-3.208-.677Z" transform="translate(-28.643 -87.868)" fill="#fff"/>
          <path id="パス_24" data-name="パス 24" d="M37.287,237.328s1.016.194,1.3.258c.416.091.566-.126.564-.472v-2.985l-1.866-.4Z" transform="translate(-25.27 -158.402)" fill="#fff"/>
          <path id="パス_25" data-name="パス 25" d="M37.287,168.711s1.015.194,1.3.259v0c.413.092.564-.121.564-.471v-2.987l-1.866-.4Z" transform="translate(-25.27 -111.899)" fill="#fff"/>
          <path id="パス_26" data-name="パス 26" d="M37.287,203.248s1.015.194,1.3.259v0c.413.09.564-.124.564-.474V200.05l-1.866-.4Z" transform="translate(-25.27 -135.306)" fill="#fff"/>
          <path id="パス_27" data-name="パス 27" d="M28.347,129.967a1.9,1.9,0,0,0,1.642,1.908h0c.7.186,1.565.022,1.565-1.117v-3.437l-3.2-.689Z" transform="translate(-19.211 -85.821)" fill="#fff"/>
          <path id="パス_28" data-name="パス 28" d="M31.258,28.834l-.01.016a.64.64,0,0,1-.071.093l-.022.023a.62.62,0,0,1-.084.069c-.01.007-.019.015-.029.021a.644.644,0,0,1-.131.063,26.849,26.849,0,0,1-8.3,1.179,26.848,26.848,0,0,1-8.3-1.179.644.644,0,0,1-.4-.817h-.034V102.39h0q.189.075.39.148l.074.026c.111.039.224.078.339.116l.107.034q.161.051.327.1l.126.037q.163.047.332.092l.133.035q.172.044.349.087l.131.031q.19.044.384.085l.112.024q.24.05.487.1l.022,0q.267.05.543.094l.031,0q.249.04.5.076l.161.022c.129.017.258.035.39.05l.2.023.362.039.224.022.354.031.237.018.355.024.242.015.369.018.235.01c.134,0,.269.008.4.012l.209.005q.3.005.6.005h.047q.3,0,.594-.005l.2-.005c.137,0,.274-.007.41-.012l.235-.01.371-.018.237-.015c.121-.007.241-.015.36-.024l.233-.019.356-.031.219-.022.362-.039.2-.024q.187-.022.37-.047l.18-.024.384-.057.152-.024c.137-.022.271-.045.4-.069l.118-.021q.223-.041.44-.085l.067-.014c.24-.05.472-.1.7-.158l.194-.049q.242-.061.476-.126l.21-.061c.149-.044.294-.089.436-.136l.185-.061c.161-.055.317-.112.469-.17l.084-.031h0V28.708a.643.643,0,0,1-.057.126M17.251,48.62c.085-2.457,1.349-2.86,2.745-2.45s2.248,1.863,2.248,3.709c0,.053-.007.1-.007.148h.007v2.892a3.494,3.494,0,0,1,1.214.577V47.4l1.3.279,0,8.375-7.5-1.606s-.007-5.627,0-5.826m5.8,52.421-2.641-.566V94.291l-2.234-.479v6.18a1.547,1.547,0,0,1-.923-1.539V90.973s2.4.529,4.84,1.046a3.3,3.3,0,0,1,2.717,3.072l0,4.534c0,1.5-1.063,1.566-1.763,1.416m0-10.983c-.7-.153-2.64-.567-2.64-.567V83.308l-2.234-.48v6.181a1.545,1.545,0,0,1-.923-1.538V79.99s2.4.529,4.84,1.046a3.3,3.3,0,0,1,2.717,3.071l0,4.534c0,1.5-1.064,1.569-1.764,1.416m0-11.13-2.641-.567V72.178L18.177,71.7v6.177a1.545,1.545,0,0,1-.923-1.535V68.859s2.4.532,4.84,1.046a3.306,3.306,0,0,1,2.717,3.073l0,4.534c0,1.5-1.062,1.568-1.763,1.417M27.508,66.41a2.206,2.206,0,0,1-2.7,2.112c-1.44-.189-2.144-1.692-2.352-2.721A2.135,2.135,0,0,1,19.5,67.358a3.489,3.489,0,0,1-2.24-3.421h0V57.08s5.125,1.1,7.563,1.617a3.273,3.273,0,0,1,2.7,3.04ZM18.425,38.03,25.8,42.716h-.02a3.41,3.41,0,0,1,1.747,2.866l-10.276-2.2V40.756c.182.04,3.088.666,5.514,1.183l-5.514-3.512v-2.7c1.2-.207,4.126-.734,6.095-1.242l-6.095-1.3,0-.911,8.829,1.884A3.5,3.5,0,0,1,28,35.743Z" transform="translate(-9.408 -19.181)" fill="#fff"/>
          <path id="パス_29" data-name="パス 29" d="M31.9,119.214c-2.437-.518-7.563-1.617-7.563-1.617v6.857h.005a3.488,3.488,0,0,0,2.24,3.421,2.134,2.134,0,0,0,2.963-1.557c.208,1.029.912,2.532,2.352,2.721a2.206,2.206,0,0,0,2.7-2.112v-4.673a3.273,3.273,0,0,0-2.7-3.04m-3.066,5.421c0,1.138-.861,1.3-1.565,1.117h0a1.9,1.9,0,0,1-1.642-1.908v-3.335l3.2.689Zm4.5.751c0,1.706-1.388,1.548-2.237,1.087h0a1.727,1.727,0,0,1-.97-1.715v-3.276l3.208.677Z" transform="translate(-16.491 -79.698)" fill="#d1cfc7"/>
          <path id="パス_30" data-name="パス 30" d="M31.832,93.335l0-8.375-1.3-.279v6.1a3.5,3.5,0,0,0-1.214-.577V87.31h-.007c0-.049.007-.1.007-.148,0-1.846-.852-3.3-2.248-3.709s-2.659-.007-2.745,2.45c-.007.2,0,5.826,0,5.826Zm-6.59-7.313c0-.615.585-.816,1.146-.672a2.207,2.207,0,0,1,1.642,2.135v2.448l-2.789-.6Z" transform="translate(-16.486 -56.464)" fill="#d1cfc7"/>
          <path id="パス_31" data-name="パス 31" d="M33.163,42.492l-8.829-1.884,0,.91,6.095,1.3c-1.969.508-4.9,1.035-6.095,1.242v2.7l5.514,3.512c-2.426-.518-5.332-1.143-5.514-1.183v2.627l10.276,2.2a3.41,3.41,0,0,0-1.747-2.866h.02L25.507,46.37l9.58-2.287a3.5,3.5,0,0,0-1.924-1.591" transform="translate(-16.49 -27.521)" fill="#d1cfc7"/>
          <path id="パス_32" data-name="パス 32" d="M29.177,155.192c-2.437-.514-4.84-1.046-4.84-1.046v7.483a1.545,1.545,0,0,0,.923,1.535v-6.177l2.234.479v6.183l2.641.567c.7.151,1.762.086,1.762-1.417l0-4.534a3.306,3.306,0,0,0-2.717-3.073m1.2,5.875c0,.35-.15.563-.564.471v0c-.287-.064-1.3-.259-1.3-.259v-3.6l1.866.4Z" transform="translate(-16.491 -104.468)" fill="#d1cfc7"/>
          <path id="パス_33" data-name="パス 33" d="M29.176,189.733c-2.437-.518-4.84-1.046-4.84-1.046v7.48a1.545,1.545,0,0,0,.923,1.539v-6.181l2.234.48v6.183s1.939.413,2.64.567,1.764.087,1.764-1.416l0-4.534a3.3,3.3,0,0,0-2.717-3.071m1.2,5.874c0,.35-.15.564-.564.474v0c-.287-.065-1.3-.259-1.3-.259v-3.6l1.866.4Z" transform="translate(-16.49 -127.878)" fill="#d1cfc7"/>
          <path id="パス_34" data-name="パス 34" d="M29.177,223.811c-2.437-.518-4.84-1.046-4.84-1.046v7.481a1.547,1.547,0,0,0,.923,1.539V225.6l2.234.48v6.183l2.641.566c.7.15,1.762.086,1.762-1.416l0-4.534a3.305,3.305,0,0,0-2.717-3.072m1.2,5.874c0,.347-.148.563-.564.472-.286-.064-1.3-.258-1.3-.258v-3.6l1.866.4Z" transform="translate(-16.491 -150.973)" fill="#d1cfc7"/>
          <path id="パス_35" data-name="パス 35" d="M32.343,10.038c2.277,0,4.122-.641,4.122-1.431,0-.018-.007-2.175-.007-2.175a.618.618,0,0,0-.155-.385C35.817,5.443,34.227,5,32.335,5s-3.48.442-3.966,1.045a.617.617,0,0,0-.156.387l.007,2.175c0,.791,1.846,1.431,4.122,1.431M29.1,7.149l0,0a.219.219,0,0,1,.276-.133,8.676,8.676,0,0,0,2.678.377,8.679,8.679,0,0,0,2.678-.377.219.219,0,0,1,.276.133l0,0a.219.219,0,0,1-.137.278,9.125,9.125,0,0,1-2.819.4,9.123,9.123,0,0,1-2.818-.4.219.219,0,0,1-.137-.278" transform="translate(-19.121 -3.389)" fill="#fff"/>
          <path id="パス_36" data-name="パス 36" d="M31.085,11.634a10.123,10.123,0,0,0,5.637,0,.219.219,0,0,0,.137-.278l0,0a.219.219,0,0,0-.276-.133,9.7,9.7,0,0,1-5.356,0,.219.219,0,0,0-.276.133l0,0a.219.219,0,0,0,.137.278" transform="translate(-20.966 -7.596)" fill="#00a7ea"/>
          <path id="パス_37" data-name="パス 37" d="M30.8,26.958a.614.614,0,0,0-.081-.008l-.048,0c-.02,0-.04,0-.06,0a.628.628,0,0,0-.114.026,25.549,25.549,0,0,1-7.883,1.111,25.542,25.542,0,0,1-7.882-1.111.653.653,0,0,0-.114-.026c-.02,0-.04,0-.061,0a.465.465,0,0,0-.047,0,.624.624,0,0,0-.082.008l-.018,0a.646.646,0,0,0-.491.413s0,.007-.005.011a.644.644,0,0,0,.4.817,26.85,26.85,0,0,0,8.3,1.179,26.847,26.847,0,0,0,8.3-1.179.644.644,0,0,0,.131-.063c.01-.006.019-.014.029-.021a.644.644,0,0,0,.084-.069l.022-.023a.659.659,0,0,0,.071-.093l.01-.016a.646.646,0,0,0,.057-.532s0-.007-.005-.011a.643.643,0,0,0-.4-.39.677.677,0,0,0-.091-.024l-.019,0" transform="translate(-9.408 -18.265)" fill="#00a7ea"/>
        </g>
      </g>
    </g>
  </g>
</svg>
