<svg xmlns="http://www.w3.org/2000/svg" xmlns:xlink="http://www.w3.org/1999/xlink" width="40" height="40" viewBox="0 0 40 40">
  <defs>
    <clipPath id="clip-path">
      <rect id="長方形_2" data-name="長方形 2" width="13.218" height="43.104" fill="none"/>
    </clipPath>
    <clipPath id="clip-_40x40">
      <rect width="40" height="40"/>
    </clipPath>
  </defs>
  <g id="_40x40" data-name="40x40" clip-path="url(#clip-_40x40)">
    <g id="グループ_26" data-name="グループ 26">
      <rect id="長方形_1" data-name="長方形 1" width="40" height="40" fill="none"/>
      <g id="グループ_24" data-name="グループ 24" transform="translate(0.087 9.434) rotate(-45)">
        <g id="グループ_2" data-name="グループ 2" clip-path="url(#clip-path)">
          <path id="パス_15" data-name="パス 15" d="M13.2,3.141l-.005-.09c-.079-.694-.717-1.937-4.1-2.464L8.937.563A4.476,4.476,0,0,0,6.6,0,4.479,4.479,0,0,0,4.274.561L4.117.586C.723,1.111.084,2.356.005,3.051L0,3.1.011,40.364l.005.09c.065.575.489,1.385,2.142,1.982l.039.014c.063.022.126.044.19.065l.058.018.182.056.068.02.184.051.069.018.19.047.07.017.211.047.056.012.272.054c.1.018.192.034.3.052l.273.041.082.011.21.027.1.012.193.021.116.011.189.017.122.009.191.013.122.007.2.01.12.005.215.006.107,0c.107,0,.215,0,.324,0s.218,0,.326,0l.106,0,.215-.006.122-.005.2-.009.12-.008.192-.013.121-.01.189-.016.115-.011L8.506,43l.106-.012.194-.025.1-.013.2-.03.079-.012.217-.037.062-.011.243-.047.027-.005c2.245-.464,3.482-1.359,3.482-2.521,0-.04-.016-37.143-.016-37.143M9.622,42.252l-.022,0-.237.046-.06.011-.207.035-.077.012-.2.029-.092.013-.188.024-.1.012-.185.02-.11.011-.183.016-.116.009-.185.012-.117.007-.191.009-.118.005-.208.006-.1,0q-.157,0-.315,0t-.314,0l-.1,0-.209-.006-.116,0-.19-.009-.118-.007-.185-.013-.118-.009-.182-.016-.112-.011-.186-.02-.1-.011-.2-.026L4.4,42.39l-.262-.039c-.1-.017-.2-.033-.289-.05l-.26-.051-.054-.012-.2-.044-.066-.016-.18-.045-.066-.018-.172-.048-.064-.018L2.616,42l-.054-.017-.177-.06-.037-.013c-1.092-.394-1.7-.918-1.772-1.515v-.027L.564,3.128l0-.014c.1-.9,1.462-1.634,3.638-1.971L4.509,1.1A3.371,3.371,0,0,1,6.6.564,3.364,3.364,0,0,1,8.7,1.1l.306.047c2.171.338,3.529,1.074,3.63,1.97l0,.027s.016,37.1.016,37.143c0,.853-1.105,1.57-3.032,1.968" transform="translate(0 0)" fill="#fff"/>
          <path id="パス_16" data-name="パス 16" d="M0,0H0Z" transform="translate(8.285 3.372)" fill="#fff"/>
          <path id="パス_17" data-name="パス 17" d="M0,0H0Z" transform="translate(8.721 3.122)" fill="#fff"/>
          <path id="パス_18" data-name="パス 18" d="M12.072,2.55c-.1-.9-1.459-1.632-3.63-1.97L8.136.533A3.365,3.365,0,0,0,6.04,0,3.371,3.371,0,0,0,3.945.532L3.639.579C1.463.916.1,1.653,0,2.55l0,.014L.011,39.8l0,.027c.068.6.68,1.121,1.772,1.515l.037.013.177.06.054.017.17.052.064.018.172.048.066.018.18.045.066.016.2.044.054.012.26.051c.091.017.184.033.289.05l.262.039.079.01.2.026.1.011.186.02.112.011.182.016.118.009L5,41.943l.118.007.19.009.116.005.209.006.1,0q.156,0,.314,0t.315,0l.1,0,.208-.006.118-.005.191-.009.117-.007.185-.012.116-.009.183-.016.11-.011.185-.02.1-.012.188-.024.092-.013.2-.029.077-.012.207-.035.06-.011.237-.046.022,0c1.927-.4,3.032-1.116,3.032-1.968,0-.04-.016-37.143-.016-37.143ZM4.06.764A2.934,2.934,0,0,1,6.043.242,2.929,2.929,0,0,1,8.027.765.309.309,0,0,1,8.1.957s0,1.079,0,1.088c0,.4-.923.716-2.061.716S3.986,2.44,3.986,2.045l0-1.088A.31.31,0,0,1,4.06.764M10.39,41.055h0l-.042.015c-.076.029-.154.057-.234.085l-.092.03q-.107.035-.218.068l-.1.03q-.117.033-.238.063l-.1.025c-.114.028-.23.054-.35.079l-.034.007-.22.043-.059.011-.2.034-.076.012-.192.029-.09.012-.185.024-.1.012-.181.019-.11.011-.178.015-.116.009-.18.012-.118.007-.186.009-.117.005-.205.006-.1,0-.3,0H6.041l-.3,0-.1,0-.2-.006-.117-.005-.184-.009L5.013,41.7l-.177-.012-.118-.009-.177-.016-.112-.011-.181-.02-.1-.012L3.952,41.6l-.081-.011-.252-.038-.016,0q-.138-.022-.272-.047l-.011,0-.243-.048-.056-.012-.192-.043-.065-.016-.175-.044-.066-.017-.166-.046-.063-.018L2.13,41.2l-.054-.017-.17-.058-.037-.013q-.1-.036-.195-.074h0C.835,40.706.309,40.274.255,39.8H.239V2.577H.245C.334,1.791,1.719,1.121,3.679.818a.567.567,0,0,0-.02.14l0,1.089a.581.581,0,0,0,.061.259.711.711,0,0,0,.11.158c.01.011.018.022.028.032s.039.036.06.054.026.023.041.034.044.033.067.048l.05.033.074.043.059.031c.026.013.053.026.08.039l.067.028.085.034.079.027c.041.014.083.027.126.039s.083.024.125.034l.083.019.1.023L5.048,3l.106.018.087.013.113.015.085.01.121.011.081.006.136.007.067,0q.1,0,.2,0t.2,0l.067,0,.136-.007.08-.006.121-.011.086-.01.112-.015.088-.013L7.044,3l.088-.016.1-.022.086-.019.108-.03q.075-.022.147-.046l.074-.025.075-.03h0l.013,0L7.8,2.777c.028-.013.056-.026.083-.039l.057-.029.076-.044.048-.032c.024-.016.047-.032.069-.049l.027-.023h0L8.17,2.55c.021-.018.043-.037.062-.056s.016-.019.025-.028A.714.714,0,0,0,8.369,2.3a.583.583,0,0,0,.062-.26c0-.009,0-1.089,0-1.089A.558.558,0,0,0,8.407.819c1.957.3,3.338.973,3.428,1.759h.006V39.6a.727.727,0,0,1,.011.118c0,.513-.553.98-1.462,1.336" transform="translate(0.564 0.564)" fill="#00a7ea"/>
          <path id="パス_19" data-name="パス 19" d="M1.451,3.179l0-.006a.321.321,0,0,1,.2-.195V2.429h.835V1.487h1a.582.582,0,0,1-.061-.259l0-1.089A.567.567,0,0,1,3.441,0C1.48.3.1.974.006,1.759H0V38.982H.017c.054.474.579.906,1.418,1.24V3.179Z" transform="translate(0.803 1.382)" fill="#00a7ea"/>
          <path id="パス_20" data-name="パス 20" d="M3.472,1.759H3.466C3.377.974,2,.3.039,0A.567.567,0,0,1,.058.137s0,1.08,0,1.089A.583.583,0,0,1,0,1.486H1v.942h.823v.549h0a.321.321,0,0,1,.2.195l0,.006a.322.322,0,0,1,0,.2V40.237c.909-.355,1.462-.823,1.462-1.336a.706.706,0,0,0-.011-.118Z" transform="translate(8.933 1.383)" fill="#00a7ea"/>
          <path id="パス_21" data-name="パス 21" d="M.835,0V.942H0v.549A.32.32,0,0,1,.046,1.48H.055a.289.289,0,0,1,.041,0H.12l.03,0a.327.327,0,0,1,.057.013,12.772,12.772,0,0,0,3.941.555A12.774,12.774,0,0,0,8.089,1.49a.314.314,0,0,1,.057-.013l.03,0H8.2a.307.307,0,0,1,.04,0l.01,0a.338.338,0,0,1,.046.012h0V.942H7.473V0h-1a.72.72,0,0,1-.113.161C6.356.171,6.348.18,6.34.189S6.3.227,6.278.245L6.267.255,6.239.278C6.217.3,6.194.311,6.17.327L6.122.359,6.046.4,5.989.433c-.027.014-.054.027-.083.039L5.842.5,5.83.5l-.075.03L5.681.559Q5.61.583,5.534.6l-.108.03L5.34.654l-.1.022L5.152.692l-.1.018L4.959.723,4.848.738l-.086.01L4.641.758l-.08.006L4.425.771l-.067,0q-.1,0-.2,0t-.2,0l-.067,0L3.75.764,3.669.758,3.548.747,3.463.738,3.35.723,3.263.71,3.157.692,3.07.676l-.1-.023L2.884.634C2.842.624,2.8.612,2.759.6S2.674.574,2.633.561L2.555.534,2.469.5,2.4.472,2.322.433,2.263.4C2.237.389,2.213.374,2.189.36L2.138.327C2.115.311,2.093.3,2.071.279S2.044.256,2.031.244,1.989.209,1.971.19,1.952.169,1.943.158A.716.716,0,0,1,1.833,0h-1Z" transform="translate(2.456 2.869)" fill="#fff"/>
          <path id="パス_22" data-name="パス 22" d="M1.394,1.09A1.1,1.1,0,0,0,.573.022C.293-.05,0,.051,0,.358V2.013l1.394.3Z" transform="translate(4.378 14.421)" fill="#fff"/>
          <path id="パス_23" data-name="パス 23" d="M0,1.638A.863.863,0,0,0,.489,2.5h0c.424.231,1.118.31,1.118-.543V.339L0,0Z" transform="translate(6.81 20.892)" fill="#fff"/>
          <path id="パス_24" data-name="パス 24" d="M0,1.8s.508.1.651.129c.208.045.283-.063.282-.236V.2L0,0Z" transform="translate(6.008 37.662)" fill="#fff"/>
          <path id="パス_25" data-name="パス 25" d="M0,1.8s.508.1.651.13h0c.207.046.282-.061.282-.236V.2L0,0Z" transform="translate(6.008 26.606)" fill="#fff"/>
          <path id="パス_26" data-name="パス 26" d="M0,1.8s.508.1.651.13h0c.207.045.282-.062.282-.237V.2L0,0Z" transform="translate(6.008 32.171)" fill="#fff"/>
          <path id="パス_27" data-name="パス 27" d="M0,1.667a.952.952,0,0,0,.821.954h0c.352.093.782.011.782-.559V.344L0,0Z" transform="translate(4.568 20.405)" fill="#fff"/>
          <path id="パス_28" data-name="パス 28" d="M8.688.266l0,.008a.32.32,0,0,1-.035.047L8.637.332a.31.31,0,0,1-.042.034L8.58.377a.322.322,0,0,1-.065.031A13.424,13.424,0,0,1,4.367,1,13.424,13.424,0,0,1,.219.409.322.322,0,0,1,.017,0H0V37.044H0q.095.038.195.074l.037.013.17.058.054.017.164.05.063.018.166.046.067.018.175.043.065.016.192.043.056.012.244.048.011,0q.134.025.272.047l.016,0,.252.038.081.011.195.025.1.011.181.02.112.011.177.015.118.009.177.012.121.007.184.009.117.005.2.006.1,0,.3,0h.024l.3,0,.1,0,.205-.006.117-.005.186-.009.118-.007.18-.012.116-.009.178-.015L6,37.657l.181-.019.1-.012.185-.024.09-.012.192-.029.076-.012.2-.034.059-.01.22-.043.034-.007c.12-.025.236-.051.35-.079l.1-.025q.121-.031.238-.063l.1-.03c.074-.022.147-.044.218-.068l.092-.03c.081-.028.158-.056.234-.085l.042-.015h0V.2a.322.322,0,0,1-.029.063m-7,9.893c.043-1.229.675-1.43,1.373-1.225a1.79,1.79,0,0,1,1.124,1.854c0,.026,0,.049,0,.074h0v1.446a1.747,1.747,0,0,1,.607.289V9.548l.649.139v4.188l-3.752-.8s0-2.814,0-2.913m2.9,26.21-1.321-.283V32.995l-1.117-.24v3.09a.774.774,0,0,1-.462-.769v-3.74s1.2.264,2.42.523a1.652,1.652,0,0,1,1.358,1.536l0,2.267c0,.751-.531.783-.881.708m0-5.491c-.35-.077-1.32-.283-1.32-.283V27.5l-1.117-.24v3.09a.773.773,0,0,1-.462-.769v-3.74s1.2.264,2.42.523A1.652,1.652,0,0,1,5.465,27.9l0,2.267c0,.751-.532.785-.882.708m0-5.565L3.265,25.03V21.938L2.148,21.7v3.088a.773.773,0,0,1-.462-.767V20.278s1.2.266,2.42.523a1.653,1.653,0,0,1,1.358,1.536l0,2.267c0,.751-.531.784-.881.709m2.228-6.259A1.1,1.1,0,0,1,5.465,20.11c-.72-.094-1.072-.846-1.176-1.36a1.067,1.067,0,0,1-1.482.778,1.744,1.744,0,0,1-1.12-1.711h0V14.389s2.563.55,3.781.809a1.636,1.636,0,0,1,1.348,1.52ZM2.272,4.864,5.959,7.207h-.01A1.7,1.7,0,0,1,6.822,8.64L1.684,7.54V6.227c.091.02,1.544.333,2.757.591L1.684,5.062V3.712c.6-.1,2.063-.367,3.047-.621L1.684,2.438V1.983L6.1,2.925a1.751,1.751,0,0,1,.962.8Z" transform="translate(2.237 4.561)" fill="#fff"/>
          <path id="パス_29" data-name="パス 29" d="M3.781.809C2.563.55,0,0,0,0V3.428H0a1.744,1.744,0,0,0,1.12,1.711A1.067,1.067,0,0,0,2.6,4.361c.1.515.456,1.266,1.176,1.36A1.1,1.1,0,0,0,5.129,4.665V2.329A1.636,1.636,0,0,0,3.781.809M2.249,3.519c0,.569-.431.651-.782.558h0a.952.952,0,0,1-.821-.954V1.456l1.6.344ZM4.5,3.894c0,.853-.694.774-1.118.543h0a.864.864,0,0,1-.485-.857V1.942l1.6.338Z" transform="translate(3.921 18.949)" fill="#d1cfc7"/>
          <path id="パス_30" data-name="パス 30" d="M3.753,5.011V.823L3.105.684V3.733A1.749,1.749,0,0,0,2.5,3.444V2h0c0-.025,0-.048,0-.074A1.789,1.789,0,0,0,1.374.07C.676-.135.044.066,0,1.294c0,.1,0,2.913,0,2.913ZM.458,1.354c0-.308.293-.408.573-.336a1.1,1.1,0,0,1,.821,1.067V3.309l-1.394-.3Z" transform="translate(3.92 13.425)" fill="#d1cfc7"/>
          <path id="パス_31" data-name="パス 31" d="M4.416.942,0,0V.455l3.047.652C2.063,1.361.6,1.625,0,1.729v1.35L2.757,4.835C1.544,4.576.091,4.264,0,4.244V5.557l5.138,1.1a1.705,1.705,0,0,0-.873-1.433h.01L.588,2.881l4.79-1.143a1.751,1.751,0,0,0-.962-.8" transform="translate(3.921 6.544)" fill="#d1cfc7"/>
          <path id="パス_32" data-name="パス 32" d="M2.422.523C1.2.266,0,0,0,0V3.741a.773.773,0,0,0,.461.767V1.42l1.117.24V4.751L2.9,5.035c.35.075.881.043.881-.709l0-2.267A1.653,1.653,0,0,0,2.422.523m.6,2.937c0,.175-.075.282-.282.236h0c-.143-.032-.651-.13-.651-.13v-1.8l.933.2Z" transform="translate(3.921 24.839)" fill="#d1cfc7"/>
          <path id="パス_33" data-name="パス 33" d="M2.422.523C1.2.264,0,0,0,0V3.74a.773.773,0,0,0,.461.769V1.419l1.117.24V4.75s.97.207,1.32.283.882.044.882-.708l0-2.267A1.652,1.652,0,0,0,2.422.523m.6,2.937c0,.175-.075.282-.282.237h0c-.143-.032-.651-.13-.651-.13v-1.8l.933.2Z" transform="translate(3.921 30.405)" fill="#d1cfc7"/>
          <path id="パス_34" data-name="パス 34" d="M2.422.523C1.2.264,0,0,0,0V3.74a.773.773,0,0,0,.461.769V1.42l1.117.24V4.751L2.9,5.034c.35.075.881.043.881-.708l0-2.267A1.653,1.653,0,0,0,2.422.523m.6,2.937c0,.174-.074.281-.282.236-.143-.032-.651-.129-.651-.129v-1.8l.933.2Z" transform="translate(3.921 35.896)" fill="#d1cfc7"/>
          <path id="パス_35" data-name="パス 35" d="M2.065,2.519c1.138,0,2.061-.32,2.061-.716,0-.009,0-1.088,0-1.088A.309.309,0,0,0,4.045.523,2.93,2.93,0,0,0,2.061,0,2.933,2.933,0,0,0,.078.522.309.309,0,0,0,0,.716L0,1.8c0,.4.923.716,2.061.716M.445,1.075v0a.11.11,0,0,1,.138-.067,4.338,4.338,0,0,0,1.339.189,4.34,4.34,0,0,0,1.339-.189.109.109,0,0,1,.138.067v0a.11.11,0,0,1-.069.139,4.562,4.562,0,0,1-1.409.2,4.561,4.561,0,0,1-1.409-.2.11.11,0,0,1-.069-.139" transform="translate(4.546 0.806)" fill="#fff"/>
          <path id="パス_36" data-name="パス 36" d="M.074.213a4.562,4.562,0,0,0,1.409.2,4.561,4.561,0,0,0,1.409-.2A.11.11,0,0,0,2.962.074v0A.109.109,0,0,0,2.823.006,4.34,4.34,0,0,1,1.484.194,4.339,4.339,0,0,1,.145.006.109.109,0,0,0,.007.073v0A.11.11,0,0,0,.074.213" transform="translate(4.985 1.806)" fill="#00a7ea"/>
          <path id="パス_37" data-name="パス 37" d="M8.46,0a.307.307,0,0,0-.04,0H8.4l-.03,0a.314.314,0,0,0-.057.013A12.774,12.774,0,0,1,4.367.571,12.771,12.771,0,0,1,.426.016.326.326,0,0,0,.369,0L.339,0H.315A.312.312,0,0,0,.274,0H.265A.323.323,0,0,0,.02.212l0,.006a.322.322,0,0,0,.2.409,13.425,13.425,0,0,0,4.148.589A13.424,13.424,0,0,0,8.515.627.322.322,0,0,0,8.58.6L8.595.585A.322.322,0,0,0,8.637.55L8.648.539A.329.329,0,0,0,8.683.492l0-.008A.323.323,0,0,0,8.717.218l0-.006a.322.322,0,0,0-.2-.195A.338.338,0,0,0,8.469.006L8.46,0" transform="translate(2.237 4.343)" fill="#00a7ea"/>
        </g>
      </g>
    </g>
  </g>
</svg>
